STARTFONT 2.1
FONT -FontForge-Fredoka One-Book-R-Normal--90-860-75-75-P-500-ISO10646-1
SIZE 86 75 75
FONTBOUNDINGBOX 74 92 1 -21
COMMENT "Generated by fontforge, http://fontforge.sourceforge.net"
COMMENT "Copyright (c) 2011 Milena B Brandao (milenabbrandao@gmail.com), with Reserved Font Name "Fredoka""
STARTPROPERTIES 37
FOUNDRY "FontForge"
FAMILY_NAME "Fredoka One"
WEIGHT_NAME "Book"
SLANT "R"
SETWIDTH_NAME "Normal"
ADD_STYLE_NAME ""
PIXEL_SIZE 90
POINT_SIZE 860
RESOLUTION_X 75
RESOLUTION_Y 75
SPACING "P"
AVERAGE_WIDTH 500
CHARSET_REGISTRY "ISO10646"
CHARSET_ENCODING "1"
FONTNAME_REGISTRY ""
CHARSET_COLLECTIONS "ISO10646-1"
FONT_NAME "FredokaOne-Regular"
FACE_NAME "Fredoka One"
COPYRIGHT "Copyright (c) 2011 Milena B Brandao (milenabbrandao@gmail.com), with Reserved Font Name "Fredoka""
FONT_VERSION "1.001"
FONT_ASCENT 72
FONT_DESCENT 18
UNDERLINE_POSITION -9
UNDERLINE_THICKNESS 5
RAW_ASCENT 800
RAW_DESCENT 200
NORM_SPACE 23
RELATIVE_WEIGHT 40
RELATIVE_SETWIDTH 50
SUPERSCRIPT_X 0
SUPERSCRIPT_Y 42
SUPERSCRIPT_SIZE 58
SUBSCRIPT_X 0
SUBSCRIPT_Y 12
SUBSCRIPT_SIZE 58
AVG_LOWERCASE_WIDTH 655
AVG_UPPERCASE_WIDTH 626
ENDPROPERTIES
CHARS 31
STARTCHAR space
ENCODING 32
SWIDTH 253 0
DWIDTH 23 0
BBX 1 1 0 0
BITMAP
00
ENDCHAR
STARTCHAR percent
ENCODING 37
SWIDTH 838 0
DWIDTH 75 0
BBX 68 74 4 -3
BITMAP
000000000000200000
000000000000780000
000000000000FE0000
000000000001FF0000
000000000001FF0000
003FF0000003FE0000
01FFFE000003FE0000
03FFFF000007FC0000
0FFFFF800007FC0000
1FFFFFC0000FF80000
1FFFFFE0000FF80000
3FFFFFF0001FF00000
7FFFFFF0001FF00000
7FFFFFF8003FE00000
7FFFFFF8003FC00000
FFFFFFF8007FC00000
FFE03FF8007F800000
FFC01FFC00FF800000
FFC00FFC01FF000000
FF800FFC01FF000000
FF800FFC03FE000000
FF800FFC03FE000000
FF800FFC07FC000000
FF800FFC07FC000000
FFC00FFC0FF8000000
FFC01FFC0FF8000000
FFE03FFC1FF0000000
FFFFFFF81FF0000000
7FFFFFF83FE0000000
7FFFFFF83FE0000000
7FFFFFF07FC0000000
3FFFFFF07F80000000
1FFFFFE0FF80000000
1FFFFFC0FF00000000
0FFFFF81FF00000000
03FFFF03FE00000000
01FFFE03FE00000000
007FF807FC00000000
00000007FC01FFE000
0000000FF807FFF800
0000000FF81FFFFC00
0000001FF03FFFFE00
0000001FF07FFFFF00
0000003FE0FFFFFF80
0000003FE0FFFFFFC0
0000007FC1FFFFFFC0
0000007FC1FFFFFFE0
000000FF83FFFFFFE0
000000FF03FFE3FFE0
000001FF03FF807FE0
000001FE03FF007FF0
000003FE03FF003FF0
000007FC03FE003FF0
000007FC07FE003FF0
00000FF807FE003FF0
00000FF803FE003FF0
00001FF003FE003FF0
00001FF003FF003FF0
00003FE003FF007FF0
00003FE003FF80FFE0
00007FC003FFFFFFE0
00007FC001FFFFFFE0
0000FF8001FFFFFFE0
0000FF8001FFFFFFC0
0001FF0000FFFFFFC0
0001FE00007FFFFF80
0003FE00003FFFFF00
0003FC00001FFFFE00
0007FC00000FFFFC00
0007F8000007FFF800
0007F8000000FFC000
0007F0000000000000
0001F0000000000000
000040000000000000
ENDCHAR
STARTCHAR parenleft
ENCODING 40
SWIDTH 384 0
DWIDTH 35 0
BBX 30 91 3 -21
BITMAP
000003E0
00003FF8
0000FFFC
0003FFFC
0007FFFC
000FFFFC
001FFFFC
003FFFFC
007FFFFC
007FFFFC
00FFFFF8
01FFFFF0
01FFFC00
03FFF800
03FFF000
07FFF000
07FFE000
07FFC000
0FFFC000
0FFF8000
0FFF8000
1FFF0000
1FFF0000
1FFF0000
3FFF0000
3FFE0000
3FFE0000
3FFE0000
7FFE0000
7FFE0000
7FFC0000
7FFC0000
7FFC0000
7FFC0000
FFFC0000
FFFC0000
FFFC0000
FFFC0000
FFF80000
FFF80000
FFF80000
FFF80000
FFF80000
FFF80000
FFF80000
FFF80000
FFF80000
FFF80000
FFF80000
FFF80000
FFF80000
FFF80000
FFF80000
FFF80000
FFFC0000
FFFC0000
FFFC0000
7FFC0000
7FFC0000
7FFC0000
7FFC0000
7FFC0000
7FFE0000
3FFE0000
3FFE0000
3FFE0000
3FFF0000
1FFF0000
1FFF0000
1FFF0000
0FFF8000
0FFF8000
0FFFC000
07FFC000
07FFE000
03FFE000
03FFF000
01FFF800
01FFFE00
00FFFFF0
00FFFFF8
007FFFFC
003FFFFC
001FFFFC
001FFFFC
000FFFFC
0003FFFC
0001FFFC
0000FFFC
00001FF8
00000180
ENDCHAR
STARTCHAR parenright
ENCODING 41
SWIDTH 384 0
DWIDTH 35 0
BBX 31 91 1 -21
BITMAP
0F800000
3FF80000
7FFE0000
7FFF0000
FFFF8000
FFFFC000
FFFFE000
FFFFF000
FFFFF800
7FFFFC00
7FFFFC00
1FFFFE00
00FFFF00
007FFF00
003FFF80
001FFF80
000FFF80
000FFFC0
0007FFC0
0007FFE0
0003FFE0
0003FFE0
0003FFF0
0001FFF0
0001FFF0
0001FFF0
0001FFF8
0000FFF8
0000FFF8
0000FFF8
0000FFF8
0000FFFC
00007FFC
00007FFC
00007FFC
00007FFC
00007FFC
00007FFC
00007FFE
00007FFE
00007FFE
00007FFE
00007FFE
00007FFE
00007FFE
00007FFE
00007FFE
00007FFE
00007FFE
00007FFE
00007FFE
00007FFE
00007FFE
00007FFC
00007FFC
00007FFC
00007FFC
00007FFC
00007FFC
0000FFFC
0000FFF8
0000FFF8
0000FFF8
0000FFF8
0000FFF8
0001FFF0
0001FFF0
0001FFF0
0003FFE0
0003FFE0
0003FFE0
0007FFC0
0007FFC0
000FFFC0
000FFF80
001FFF80
003FFF00
007FFF00
00FFFE00
3FFFFE00
7FFFFC00
7FFFFC00
FFFFF800
FFFFF000
FFFFE000
FFFFC000
FFFF8000
7FFF0000
7FFC0000
3FF00000
02000000
ENDCHAR
STARTCHAR comma
ENCODING 44
SWIDTH 238 0
DWIDTH 21 0
BBX 17 31 2 -14
BITMAP
03F000
1FFE00
3FFF00
7FFF00
7FFF80
FFFF80
FFFF80
FFFF80
FFFF80
FFFF80
FFFF80
FFFF80
7FFF80
7FFF80
7FFF80
3FFF00
0FFF00
03FF00
03FF00
03FE00
07FE00
07FC00
0FFC00
1FF800
3FF800
7FF000
FFE000
FFC000
FF8000
FF0000
7C0000
ENDCHAR
STARTCHAR hyphen
ENCODING 45
SWIDTH 433 0
DWIDTH 39 0
BBX 35 14 2 13
BITMAP
0FFFFFFE00
3FFFFFFF80
7FFFFFFFC0
7FFFFFFFC0
FFFFFFFFC0
FFFFFFFFE0
FFFFFFFFE0
FFFFFFFFE0
FFFFFFFFE0
FFFFFFFFE0
FFFFFFFFC0
7FFFFFFFC0
7FFFFFFFC0
3FFFFFFF80
ENDCHAR
STARTCHAR period
ENCODING 46
SWIDTH 237 0
DWIDTH 21 0
BBX 17 17 2 0
BITMAP
07C000
1FFE00
7FFF00
7FFF00
7FFF80
FFFF80
FFFF80
FFFF80
FFFF80
FFFF80
FFFF80
FFFF80
7FFF80
7FFF00
7FFF00
3FFE00
0FFC00
ENDCHAR
STARTCHAR slash
ENCODING 47
SWIDTH 526 0
DWIDTH 47 0
BBX 45 75 1 -5
BITMAP
000000007E00
00000000FF80
00000001FFE0
00000001FFF0
00000003FFF8
00000003FFF8
00000007FFF8
00000007FFF8
0000000FFFF0
0000000FFFF0
0000001FFFF0
0000001FFFE0
0000003FFFE0
0000003FFFC0
0000007FFFC0
0000007FFF80
000000FFFF80
000000FFFF00
000001FFFF00
000001FFFF00
000003FFFE00
000003FFFE00
000003FFFC00
000007FFFC00
000007FFF800
00000FFFF800
00000FFFF000
00001FFFF000
00001FFFE000
00003FFFE000
00003FFFC000
00007FFFC000
00007FFF8000
0000FFFF8000
0000FFFF0000
0001FFFF0000
0001FFFE0000
0003FFFE0000
0003FFFC0000
0007FFFC0000
0007FFF80000
000FFFF80000
000FFFF00000
001FFFF00000
001FFFE00000
001FFFE00000
003FFFE00000
003FFFC00000
007FFFC00000
007FFF800000
00FFFF800000
00FFFF000000
01FFFF000000
01FFFE000000
03FFFE000000
03FFFC000000
07FFFC000000
07FFF8000000
0FFFF8000000
0FFFF0000000
1FFFF0000000
1FFFE0000000
3FFFE0000000
3FFFC0000000
7FFFC0000000
7FFF80000000
7FFF80000000
7FFF00000000
FFFF00000000
FFFE00000000
7FFE00000000
3FFC00000000
1FFC00000000
07F800000000
01F000000000
ENDCHAR
STARTCHAR zero
ENCODING 48
SWIDTH 608 0
DWIDTH 55 0
BBX 50 68 2 -1
BITMAP
000007FC000000
00007FFFC00000
0003FFFFF00000
0007FFFFFC0000
001FFFFFFE0000
003FFFFFFF8000
007FFFFFFFC000
00FFFFFFFFE000
01FFFFFFFFF000
03FFFFFFFFF000
03FFFFFFFFF800
07FFFFFFFFF800
07FFFFFFFFFC00
0FFFFFFFFFFC00
0FFFFFFFFFFE00
1FFFFFFFFFFE00
1FFFFE0FFFFF00
1FFFF803FFFF00
3FFFF001FFFF00
3FFFE000FFFF80
3FFFC000FFFF80
3FFFC0007FFF80
7FFFC0007FFF80
7FFF80007FFF80
7FFF80003FFFC0
7FFF80003FFFC0
7FFF80003FFFC0
7FFF80003FFFC0
FFFF80003FFFC0
FFFF00003FFFC0
FFFF00003FFFC0
FFFF00003FFFC0
FFFF00001FFFC0
FFFF00001FFFC0
FFFF00001FFFC0
FFFF00001FFFC0
FFFF00003FFFC0
FFFF00003FFFC0
FFFF00003FFFC0
FFFF00003FFFC0
7FFF80003FFFC0
7FFF80003FFFC0
7FFF80003FFFC0
7FFF80003FFFC0
7FFF80007FFFC0
7FFFC0007FFF80
7FFFC0007FFF80
3FFFC000FFFF80
3FFFE000FFFF80
3FFFF001FFFF00
3FFFF803FFFF00
1FFFFC07FFFF00
1FFFFFFFFFFE00
0FFFFFFFFFFE00
0FFFFFFFFFFE00
0FFFFFFFFFFC00
07FFFFFFFFFC00
03FFFFFFFFF800
03FFFFFFFFF800
01FFFFFFFFF000
00FFFFFFFFE000
00FFFFFFFFC000
003FFFFFFF8000
001FFFFFFF0000
000FFFFFFE0000
0003FFFFF80000
0000FFFFE00000
00001FFF000000
ENDCHAR
STARTCHAR one
ENCODING 49
SWIDTH 407 0
DWIDTH 37 0
BBX 32 66 1 0
BITMAP
000007F0
00001FFC
00003FFE
00007FFF
0000FFFF
0001FFFF
0003FFFF
0007FFFF
000FFFFF
001FFFFF
007FFFFF
00FFFFFF
01FFFFFF
03FFFFFF
07FFFFFF
0FFFFFFF
1FFFFFFF
3FFFFFFF
7FFFFFFF
7FFFFFFF
FFFFFFFF
FFFFFFFF
7FFFFFFF
7FFFFFFF
7FFFFFFF
3FFFFFFF
1FFFFFFF
0FFCFFFF
07F8FFFF
01C0FFFF
0000FFFF
0000FFFF
0000FFFF
0000FFFF
0000FFFF
0000FFFF
0000FFFF
0000FFFF
0000FFFF
0000FFFF
0000FFFF
0000FFFF
0000FFFF
0000FFFF
0000FFFF
0000FFFF
0000FFFF
0000FFFF
0000FFFF
0000FFFF
0000FFFF
0000FFFF
0000FFFF
0000FFFF
0000FFFF
0000FFFF
0000FFFF
0000FFFF
0000FFFF
0000FFFF
0000FFFF
0000FFFF
0000FFFF
00007FFE
00003FFE
00001FF8
ENDCHAR
STARTCHAR two
ENCODING 50
SWIDTH 609 0
DWIDTH 55 0
BBX 51 67 2 0
BITMAP
00001FFC000000
0000FFFF800000
0007FFFFF00000
000FFFFFF80000
003FFFFFFE0000
007FFFFFFF0000
00FFFFFFFF8000
01FFFFFFFFC000
03FFFFFFFFE000
07FFFFFFFFF000
07FFFFFFFFF000
0FFFFFFFFFF800
1FFFFFFFFFFC00
1FFFFFFFFFFC00
3FFFFFFFFFFE00
3FFFFFFFFFFE00
7FFFF80FFFFE00
7FFFF003FFFF00
7FFFE001FFFF00
7FFFC001FFFF00
FFFF8000FFFF00
FFFF8000FFFF80
FFFF80007FFF80
FFFF00007FFF80
FFFF00007FFF80
FFFF00007FFF80
FFFF0000FFFF80
FFFF0000FFFF80
7FFF0001FFFF80
7FFF0001FFFF00
3FFE0003FFFF00
1FF80007FFFF00
0000000FFFFE00
0000001FFFFE00
0000007FFFFE00
000000FFFFFC00
000001FFFFF800
000007FFFFF800
00001FFFFFF000
00003FFFFFE000
0000FFFFFFE000
0003FFFFFFC000
0007FFFFFF0000
001FFFFFFE0000
003FFFFFFC0000
00FFFFFFF80000
01FFFFFFE00000
03FFFFFFC00000
07FFFFFF000000
0FFFFFFC000000
1FFFFFF0000000
1FFFFFFFFFFE00
3FFFFFFFFFFFC0
7FFFFFFFFFFFC0
7FFFFFFFFFFFE0
7FFFFFFFFFFFE0
FFFFFFFFFFFFE0
FFFFFFFFFFFFE0
FFFFFFFFFFFFE0
FFFFFFFFFFFFE0
FFFFFFFFFFFFE0
7FFFFFFFFFFFE0
7FFFFFFFFFFFE0
3FFFFFFFFFFFE0
3FFFFFFFFFFFE0
1FFFFFFFFFFFC0
07FFFFFFFFFF00
ENDCHAR
STARTCHAR three
ENCODING 51
SWIDTH 608 0
DWIDTH 55 0
BBX 50 68 2 -1
BITMAP
00000FFE000000
0000FFFFE00000
0003FFFFF80000
000FFFFFFE0000
003FFFFFFF0000
007FFFFFFFC000
00FFFFFFFFE000
01FFFFFFFFF000
03FFFFFFFFF800
03FFFFFFFFF800
07FFFFFFFFFC00
07FFFFFFFFFE00
0FFFFFFFFFFE00
0FFFFFFFFFFF00
1FFFFFFFFFFF00
1FFFFFDFFFFF00
1FFFF803FFFF80
1FFFF000FFFF80
1FFFE000FFFF80
0FFFC0007FFF80
07FFC0007FFF80
03FF80007FFF80
01FF8000FFFF80
007E0001FFFF80
000000FFFFFF00
00000FFFFFFF00
00001FFFFFFF00
00001FFFFFFE00
00001FFFFFFC00
00003FFFFFF800
00003FFFFFF000
00003FFFFFE000
00003FFFFFC000
00003FFFFFE000
00003FFFFFF800
00003FFFFFFC00
00001FFFFFFE00
00001FFFFFFF00
00000FFFFFFF00
000007FFFFFF80
00000007FFFF80
00000000FFFFC0
07F800007FFFC0
3FFC00003FFFC0
7FFE00003FFFC0
7FFF00003FFFC0
FFFF00001FFFC0
FFFF00003FFFC0
FFFF80003FFFC0
FFFF80007FFFC0
7FFFE000FFFFC0
7FFFF001FFFFC0
7FFFFF3FFFFFC0
3FFFFFFFFFFF80
3FFFFFFFFFFF80
3FFFFFFFFFFF00
1FFFFFFFFFFF00
0FFFFFFFFFFE00
0FFFFFFFFFFC00
07FFFFFFFFFC00
03FFFFFFFFF800
01FFFFFFFFF000
00FFFFFFFFE000
007FFFFFFF8000
001FFFFFFF0000
0007FFFFFC0000
0001FFFFF00000
00001FFF000000
ENDCHAR
STARTCHAR four
ENCODING 52
SWIDTH 592 0
DWIDTH 53 0
BBX 49 66 1 0
BITMAP
001FE0000FF800
003FF8003FFE00
007FFE007FFF00
007FFE007FFF00
00FFFF007FFF00
00FFFF007FFF80
00FFFF007FFF80
00FFFF007FFF80
01FFFF007FFF80
01FFFF007FFF80
01FFFE007FFF80
01FFFE007FFF80
03FFFE007FFF80
03FFFE007FFF80
03FFFC007FFF80
03FFFC007FFF80
07FFFC007FFF80
07FFFC007FFF80
07FFF8007FFF80
07FFF8007FFF80
0FFFF8007FFF80
0FFFF8007FFF80
0FFFF0007FFF80
0FFFF0007FFF80
1FFFF0007FFF80
1FFFF0007FFF80
1FFFE0007FFF80
1FFFE0007FFF80
3FFFE0007FFF80
3FFFE0007FFF80
3FFFC0007FFF80
3FFFC0007FFF80
7FFFFFFFFFFF80
7FFFFFFFFFFF80
7FFFFFFFFFFF80
7FFFFFFFFFFF80
7FFFFFFFFFFF80
FFFFFFFFFFFF80
FFFFFFFFFFFF80
FFFFFFFFFFFF80
FFFFFFFFFFFF80
FFFFFFFFFFFF80
7FFFFFFFFFFF80
7FFFFFFFFFFF80
7FFFFFFFFFFF80
3FFFFFFFFFFF80
0FFFFFFFFFFF80
000000007FFF80
000000007FFF80
000000007FFF80
000000007FFF80
000000007FFF80
000000007FFF80
000000007FFF80
000000007FFF80
000000007FFF80
000000007FFF80
000000007FFF80
000000007FFF80
000000007FFF80
000000007FFF80
000000007FFF00
000000007FFF00
000000003FFF00
000000001FFE00
0000000007F800
ENDCHAR
STARTCHAR five
ENCODING 53
SWIDTH 530 0
DWIDTH 48 0
BBX 44 67 1 -1
BITMAP
003FFFFFFF00
00FFFFFFFF80
01FFFFFFFFC0
03FFFFFFFFE0
03FFFFFFFFE0
03FFFFFFFFE0
07FFFFFFFFE0
07FFFFFFFFE0
07FFFFFFFFE0
07FFFFFFFFE0
07FFFFFFFFE0
0FFFFFFFFFE0
0FFFFFFFFFE0
0FFFFFFFFFC0
0FFFFFFFFF80
0FFFFFFFFE00
0FFFF0000000
0FFFF0000000
0FFFF0000000
1FFFE0000000
1FFFE0000000
1FFFE0000000
1FFFEF000000
1FFFFFF80000
1FFFFFFF0000
1FFFFFFF8000
3FFFFFFFE000
3FFFFFFFF000
3FFFFFFFF800
3FFFFFFFFC00
3FFFFFFFFE00
3FFFFFFFFF00
3FFFFFFFFF80
3FFFFFFFFF80
7FFFFFFFFFC0
7FFFFFFFFFE0
3FFFFFFFFFE0
3FFFFFFFFFE0
0FFFF1FFFFF0
07FFC03FFFF0
01FF001FFFF0
007E000FFFF0
0000000FFFF0
0000000FFFF0
0000000FFFF0
0000000FFFF0
00C0000FFFF0
03F0000FFFF0
07FC001FFFF0
0FFE001FFFF0
1FFF807FFFF0
3FFFFFFFFFE0
7FFFFFFFFFE0
7FFFFFFFFFE0
FFFFFFFFFFC0
FFFFFFFFFFC0
7FFFFFFFFF80
7FFFFFFFFF00
3FFFFFFFFF00
3FFFFFFFFE00
0FFFFFFFFC00
07FFFFFFF800
03FFFFFFF000
01FFFFFFE000
007FFFFF8000
000FFFFE0000
0001FFF00000
ENDCHAR
STARTCHAR six
ENCODING 54
SWIDTH 560 0
DWIDTH 50 0
BBX 46 67 2 -1
BITMAP
00000003FF80
0000003FFFE0
000001FFFFE0
00000FFFFFF0
00003FFFFFF0
00007FFFFFF0
0001FFFFFFF0
0003FFFFFFF0
0007FFFFFFF0
000FFFFFFFF0
001FFFFFFFF0
003FFFFFFFF0
007FFFFFFFF0
00FFFFFFFFE0
00FFFFFFFFE0
01FFFFFFFF80
03FFFFFE0000
03FFFFF00000
07FFFFC00000
07FFFF000000
0FFFFE000000
0FFFFC000000
1FFFF8000000
1FFFF0000000
1FFFF0000000
3FFFE0000000
3FFFC0000000
3FFFCFFE0000
3FFFFFFFC000
7FFFFFFFF000
7FFFFFFFF800
7FFFFFFFFE00
7FFFFFFFFF00
7FFFFFFFFF80
7FFFFFFFFFC0
FFFFFFFFFFC0
FFFFFFFFFFE0
FFFFFFFFFFF0
FFFFFFFFFFF0
FFFFFFFFFFF8
FFFFFFFFFFF8
FFFFF01FFFFC
FFFFC007FFFC
FFFF8003FFFC
FFFF8003FFFC
7FFF8003FFFC
7FFF8003FFFC
7FFF8003FFFC
7FFF8003FFFC
7FFF8003FFFC
3FFFC007FFFC
3FFFE00FFFF8
3FFFFFFFFFF8
1FFFFFFFFFF8
1FFFFFFFFFF0
0FFFFFFFFFF0
0FFFFFFFFFE0
07FFFFFFFFE0
07FFFFFFFFC0
03FFFFFFFF80
01FFFFFFFF00
00FFFFFFFE00
007FFFFFFC00
003FFFFFF800
000FFFFFE000
0003FFFF8000
00007FFC0000
ENDCHAR
STARTCHAR seven
ENCODING 55
SWIDTH 561 0
DWIDTH 50 0
BBX 48 66 1 0
BITMAP
0FFFFFFFFFF0
3FFFFFFFFFFC
7FFFFFFFFFFE
7FFFFFFFFFFF
7FFFFFFFFFFF
FFFFFFFFFFFF
FFFFFFFFFFFF
FFFFFFFFFFFF
FFFFFFFFFFFF
FFFFFFFFFFFF
FFFFFFFFFFFF
7FFFFFFFFFFF
7FFFFFFFFFFF
7FFFFFFFFFFE
3FFFFFFFFFFE
0FFFFFFFFFFE
00000007FFFC
0000000FFFFC
0000000FFFF8
0000001FFFF8
0000001FFFF0
0000003FFFF0
0000007FFFE0
0000007FFFE0
000000FFFFC0
000001FFFFC0
000003FFFF80
000003FFFF80
000007FFFF00
00000FFFFE00
00000FFFFE00
00001FFFFC00
00001FFFF800
00003FFFF800
00007FFFF000
00007FFFF000
0000FFFFE000
0000FFFFC000
0001FFFFC000
0001FFFF8000
0003FFFF0000
0003FFFF0000
0007FFFE0000
0007FFFE0000
0007FFFC0000
000FFFFC0000
000FFFF80000
000FFFF80000
001FFFF00000
001FFFF00000
001FFFF00000
001FFFE00000
003FFFE00000
003FFFE00000
003FFFC00000
003FFFC00000
003FFFC00000
003FFFC00000
003FFFC00000
003FFFC00000
003FFFC00000
003FFFC00000
003FFF800000
003FFF800000
001FFF000000
0007FE000000
ENDCHAR
STARTCHAR eight
ENCODING 56
SWIDTH 582 0
DWIDTH 52 0
BBX 48 68 2 -1
BITMAP
00003FFE0000
0001FFFF8000
0007FFFFE000
001FFFFFF800
003FFFFFFC00
007FFFFFFF00
00FFFFFFFF80
01FFFFFFFFC0
03FFFFFFFFC0
07FFFFFFFFE0
07FFFFFFFFF0
0FFFFFFFFFF0
0FFFFFFFFFF8
1FFFFFFFFFF8
1FFFFFFFFFF8
1FFFF81FFFFC
3FFFF007FFFC
3FFFE007FFFC
3FFFC003FFFC
3FFFC003FFFC
3FFFC003FFFC
3FFFE003FFFC
3FFFE007FFFC
1FFFF007FFFC
1FFFFC1FFFF8
1FFFFFFFFFF8
0FFFFFFFFFF8
0FFFFFFFFFF0
07FFFFFFFFE0
03FFFFFFFFE0
03FFFFFFFFC0
01FFFFFFFF80
01FFFFFFFFC0
03FFFFFFFFE0
07FFFFFFFFF0
0FFFFFFFFFF0
1FFFFFFFFFF8
1FFFFFFFFFFC
3FFFFFFFFFFC
3FFFFF7FFFFE
7FFFF007FFFE
7FFFC003FFFE
7FFF8001FFFF
FFFF8001FFFF
FFFF0000FFFF
FFFF0000FFFF
FFFF0000FFFF
FFFF0000FFFF
FFFF8000FFFF
FFFF8001FFFF
7FFFC001FFFF
7FFFE003FFFE
7FFFF80FFFFE
7FFFFFFFFFFE
3FFFFFFFFFFC
3FFFFFFFFFFC
1FFFFFFFFFF8
1FFFFFFFFFF8
0FFFFFFFFFF0
07FFFFFFFFE0
03FFFFFFFFC0
01FFFFFFFFC0
00FFFFFFFF00
007FFFFFFE00
001FFFFFF800
0007FFFFF000
0001FFFFC000
00003FFC0000
ENDCHAR
STARTCHAR nine
ENCODING 57
SWIDTH 560 0
DWIDTH 50 0
BBX 46 67 2 0
BITMAP
00007FF00000
0003FFFF0000
000FFFFFC000
003FFFFFF000
007FFFFFF800
01FFFFFFFC00
03FFFFFFFE00
07FFFFFFFF00
0FFFFFFFFF80
0FFFFFFFFFC0
1FFFFFFFFFC0
1FFFFFFFFFE0
3FFFFFFFFFE0
3FFFFFFFFFF0
7FFFFFFFFFF0
7FFFE01FFFF0
7FFF800FFFF8
7FFF8007FFF8
FFFF0007FFF8
FFFF0003FFF8
FFFF0003FFFC
FFFF0003FFFC
FFFF0003FFFC
FFFF8007FFFC
7FFF800FFFFC
7FFFE01FFFFC
7FFFFFFFFFFC
7FFFFFFFFFFC
3FFFFFFFFFFC
3FFFFFFFFFFC
1FFFFFFFFFFC
0FFFFFFFFFFC
07FFFFFFFFFC
07FFFFFFFFFC
01FFFFFFFFFC
00FFFFFFFFF8
007FFFFFFFF8
003FFFFFFFF8
000FFFFFFFF8
0001FFEFFFF8
0000000FFFF0
0000001FFFF0
0000001FFFF0
0000003FFFE0
0000007FFFE0
000000FFFFE0
000001FFFFC0
000003FFFFC0
000007FFFF80
00001FFFFF80
0000FFFFFF00
03FFFFFFFE00
0FFFFFFFFE00
1FFFFFFFFC00
1FFFFFFFF800
3FFFFFFFF000
3FFFFFFFF000
3FFFFFFFE000
3FFFFFFFC000
3FFFFFFF8000
3FFFFFFE0000
3FFFFFFC0000
3FFFFFF00000
1FFFFFE00000
1FFFFF000000
0FFFF8000000
07FF80000000
ENDCHAR
STARTCHAR colon
ENCODING 58
SWIDTH 238 0
DWIDTH 21 0
BBX 17 45 2 0
BITMAP
1FFC00
3FFF00
7FFF00
7FFF80
FFFF80
FFFF80
FFFF80
FFFF80
FFFF80
FFFF80
FFFF80
7FFF80
7FFF80
7FFF00
3FFF00
1FFC00
000000
000000
000000
000000
000000
000000
000000
000000
000000
000000
000000
000000
01E000
1FFE00
3FFF00
7FFF00
7FFF80
FFFF80
FFFF80
FFFF80
FFFF80
FFFF80
FFFF80
FFFF80
7FFF80
7FFF00
7FFF00
3FFE00
0FFC00
ENDCHAR
STARTCHAR less
ENCODING 60
SWIDTH 627 0
DWIDTH 56 0
BBX 54 62 1 0
BITMAP
00000000000380
00000000001FC0
00000000007FE0
0000000000FFF0
0000000003FFF0
000000000FFFF8
000000001FFFF8
000000007FFFFC
00000001FFFFFC
00000003FFFFFC
0000000FFFFFFC
0000003FFFFFF8
0000007FFFFFF0
000001FFFFFFE0
000007FFFFFFC0
00000FFFFFFF00
00003FFFFFFC00
0000FFFFFFF800
0003FFFFFFE000
0007FFFFFF8000
001FFFFFFE0000
007FFFFFFC0000
00FFFFFFF00000
03FFFFFFE00000
0FFFFFFF800000
1FFFFFFE000000
3FFFFFF8000000
7FFFFFF0000000
7FFFFFC0000000
FFFFFF00000000
FFFFFE00000000
FFFFFE00000000
FFFFFF00000000
7FFFFFC0000000
7FFFFFF0000000
3FFFFFF8000000
1FFFFFFE000000
0FFFFFFF800000
03FFFFFFC00000
00FFFFFFF00000
007FFFFFFC0000
001FFFFFFE0000
0007FFFFFF8000
0003FFFFFFE000
0000FFFFFFF000
00003FFFFFFC00
00001FFFFFFF00
000007FFFFFFC0
000001FFFFFFE0
000000FFFFFFF0
0000003FFFFFF8
0000000FFFFFFC
00000003FFFFFC
00000001FFFFFC
000000007FFFFC
000000001FFFF8
000000000FFFF8
0000000003FFF0
0000000000FFF0
00000000007FE0
00000000001FC0
00000000000380
ENDCHAR
STARTCHAR equal
ENCODING 61
SWIDTH 478 0
DWIDTH 43 0
BBX 39 32 2 4
BITMAP
3FFFFFFFF8
7FFFFFFFFC
7FFFFFFFFC
7FFFFFFFFE
FFFFFFFFFE
FFFFFFFFFE
FFFFFFFFFE
FFFFFFFFFE
FFFFFFFFFE
7FFFFFFFFE
7FFFFFFFFC
3FFFFFFFFC
1FFFFFFFF8
0000000000
0000000000
0000000000
0000000000
0000000000
0000000000
3FFFFFFFF0
7FFFFFFFFC
7FFFFFFFFC
FFFFFFFFFC
FFFFFFFFFE
FFFFFFFFFE
FFFFFFFFFE
FFFFFFFFFE
FFFFFFFFFE
FFFFFFFFFC
7FFFFFFFFC
7FFFFFFFFC
1FFFFFFFF8
ENDCHAR
STARTCHAR greater
ENCODING 62
SWIDTH 627 0
DWIDTH 56 0
BBX 54 62 1 0
BITMAP
03800000000000
0FE00000000000
1FF80000000000
1FFE0000000000
3FFF0000000000
7FFFC000000000
7FFFF000000000
7FFFF800000000
FFFFFE00000000
FFFFFF80000000
7FFFFFC0000000
7FFFFFF0000000
3FFFFFFC000000
1FFFFFFF000000
07FFFFFF800000
03FFFFFFE00000
00FFFFFFF80000
003FFFFFFC0000
000FFFFFFF0000
0007FFFFFFC000
0001FFFFFFE000
00007FFFFFF800
00003FFFFFFE00
00000FFFFFFF00
000003FFFFFFC0
000001FFFFFFF0
0000007FFFFFF8
0000001FFFFFF8
0000000FFFFFFC
00000003FFFFFC
00000000FFFFFC
00000000FFFFFC
00000003FFFFFC
0000000FFFFFFC
0000001FFFFFF8
0000007FFFFFF8
000001FFFFFFF0
000003FFFFFFC0
00000FFFFFFF00
00003FFFFFFE00
00007FFFFFF800
0001FFFFFFE000
0007FFFFFFC000
000FFFFFFF0000
003FFFFFFC0000
00FFFFFFF80000
01FFFFFFE00000
07FFFFFF800000
1FFFFFFF000000
3FFFFFFC000000
7FFFFFF0000000
FFFFFFE0000000
FFFFFF80000000
FFFFFE00000000
7FFFF800000000
7FFFF000000000
7FFFC000000000
3FFF0000000000
1FFE0000000000
1FF80000000000
0FE00000000000
03800000000000
ENDCHAR
STARTCHAR L
ENCODING 76
SWIDTH 587 0
DWIDTH 53 0
BBX 47 66 4 0
BITMAP
1FF000000000
7FFC00000000
7FFE00000000
FFFE00000000
FFFE00000000
FFFE00000000
FFFE00000000
FFFF00000000
FFFF00000000
FFFF00000000
FFFF00000000
FFFF00000000
FFFF00000000
FFFF00000000
FFFF00000000
FFFF00000000
FFFF00000000
FFFF00000000
FFFF00000000
FFFF00000000
FFFF00000000
FFFF00000000
FFFF00000000
FFFF00000000
FFFF00000000
FFFF00000000
FFFF00000000
FFFF00000000
FFFF00000000
FFFF00000000
FFFF00000000
FFFF00000000
FFFF00000000
FFFF00000000
FFFF00000000
FFFF00000000
FFFF00000000
FFFF00000000
FFFF00000000
FFFF00000000
FFFF00000000
FFFF00000000
FFFF00000000
FFFF00000000
FFFF00000000
FFFF00000000
FFFF00000000
FFFF00000000
FFFF00000000
FFFF00000000
FFFF00000000
FFFF00000000
FFFF00000000
FFFFFFFFFFF8
FFFFFFFFFFFC
FFFFFFFFFFFC
FFFFFFFFFFFC
FFFFFFFFFFFC
FFFFFFFFFFFE
FFFFFFFFFFFE
FFFFFFFFFFFE
FFFFFFFFFFFC
FFFFFFFFFFFC
7FFFFFFFFFFC
7FFFFFFFFFF8
1FFFFFFFFFF0
ENDCHAR
STARTCHAR M
ENCODING 77
SWIDTH 870 0
DWIDTH 78 0
BBX 71 66 4 0
BITMAP
0FE000000000001FC0
7FFC0000000000FFF8
7FFE0000000000FFFC
FFFE0000000001FFFC
FFFF0000000003FFFC
FFFF8000000007FFFE
FFFFC00000000FFFFE
FFFFC00000000FFFFE
FFFFE00000001FFFFE
FFFFF00000003FFFFE
FFFFF80000007FFFFE
FFFFFC0000007FFFFE
FFFFFC000000FFFFFE
FFFFFE000001FFFFFE
FFFFFF000003FFFFFE
FFFFFF800007FFFFFE
FFFFFF800007FFFFFE
FFFFFFC0000FFFFFFE
FFFFFFE0001FFFFFFE
FFFFFFF0003FFFFFFE
FFFFFFF0003FFFFFFE
FFFFFFF8007FFFFFFE
FFFFFFFC00FFFFFFFE
FFFFFFFE01FFFFFFFE
FFFFFFFE01FFFFFFFE
FFFFFFFF03FFFFFFFE
FFFFFFFF87FFFFFFFE
FFFFFFFFCFFFFFFFFE
FFFEFFFFCFFFFDFFFE
FFFE7FFFFFFFF9FFFE
FFFE7FFFFFFFF9FFFE
FFFE3FFFFFFFF1FFFE
FFFE1FFFFFFFE1FFFE
FFFE0FFFFFFFC1FFFE
FFFE0FFFFFFFC1FFFE
FFFE07FFFFFF81FFFE
FFFE03FFFFFF01FFFE
FFFE01FFFFFF01FFFE
FFFE01FFFFFE01FFFE
FFFE00FFFFFC01FFFE
FFFE007FFFF801FFFE
FFFE007FFFF801FFFE
FFFE003FFFF001FFFE
FFFE001FFFE001FFFE
FFFE000FFFE001FFFE
FFFE0007FFC001FFFE
FFFE0007FF8001FFFE
FFFE0001FF0001FFFE
FFFE0000FC0001FFFE
FFFE0000000001FFFE
FFFE0000000001FFFE
FFFE0000000001FFFE
FFFE0000000001FFFE
FFFE0000000001FFFE
FFFE0000000001FFFE
FFFE0000000001FFFE
FFFE0000000001FFFE
FFFE0000000001FFFE
FFFE0000000001FFFE
FFFE0000000001FFFE
FFFE0000000001FFFE
FFFE0000000001FFFC
FFFE0000000001FFFC
7FFC0000000000FFFC
7FFC00000000007FF8
0FE000000000001FE0
ENDCHAR
STARTCHAR P
ENCODING 80
SWIDTH 632 0
DWIDTH 57 0
BBX 51 66 4 0
BITMAP
1FFFFFFE000000
7FFFFFFFE00000
7FFFFFFFF80000
FFFFFFFFFE0000
FFFFFFFFFF0000
FFFFFFFFFFC000
FFFFFFFFFFE000
FFFFFFFFFFF000
FFFFFFFFFFF800
FFFFFFFFFFFC00
FFFFFFFFFFFE00
FFFFFFFFFFFE00
FFFFFFFFFFFF00
FFFFFFFFFFFF00
FFFFFFFFFFFF80
FFFFFFFFFFFF80
FFFF0003FFFFC0
FFFF0001FFFFC0
FFFF00007FFFC0
FFFF00003FFFC0
FFFF00003FFFC0
FFFF00003FFFE0
FFFF00001FFFE0
FFFF00001FFFE0
FFFF00001FFFE0
FFFF00001FFFE0
FFFF00003FFFE0
FFFF00003FFFC0
FFFF00003FFFC0
FFFF00007FFFC0
FFFF0001FFFFC0
FFFF0007FFFF80
FFFFFFFFFFFF80
FFFFFFFFFFFF80
FFFFFFFFFFFF00
FFFFFFFFFFFF00
FFFFFFFFFFFE00
FFFFFFFFFFFE00
FFFFFFFFFFFC00
FFFFFFFFFFF800
FFFFFFFFFFF000
FFFFFFFFFFE000
FFFFFFFFFFC000
FFFFFFFFFF0000
FFFFFFFFFE0000
FFFFFFFFF80000
FFFFFFFFC00000
FFFFFFFE000000
FFFF0000000000
FFFF0000000000
FFFF0000000000
FFFF0000000000
FFFF0000000000
FFFF0000000000
FFFF0000000000
FFFF0000000000
FFFF0000000000
FFFF0000000000
FFFF0000000000
FFFF0000000000
FFFE0000000000
FFFE0000000000
FFFE0000000000
7FFE0000000000
3FFC0000000000
0FF00000000000
ENDCHAR
STARTCHAR m
ENCODING 109
SWIDTH 851 0
DWIDTH 77 0
BBX 69 48 4 0
BITMAP
000000400000080000
3FF807FE0001FFC000
7FFC1FFF8007FFF000
FFFC3FFFE00FFFF800
FFFE7FFFF03FFFFE00
FFFEFFFFF87FFFFF00
FFFFFFFFFCFFFFFF80
FFFFFFFFFCFFFFFF80
FFFFFFFFFFFFFFFFC0
FFFFFFFFFFFFFFFFC0
FFFFFFFFFFFFFFFFE0
FFFFFFFFFFFFFFFFE0
FFFFFFFFFFFFFFFFF0
FFFFFFFFFFFFFFFFF0
FFFFFFFFFFFFFFFFF0
FFFFFFFFFFFFFFFFF0
FFFFF3FFFFFE7FFFF0
FFFFC0FFFFF01FFFF8
FFFF807FFFE00FFFF8
FFFF003FFFE00FFFF8
FFFF003FFFE007FFF8
FFFF003FFFC007FFF8
FFFF003FFFC007FFF8
FFFE003FFFC007FFF8
FFFE003FFFC007FFF8
FFFE003FFFC007FFF8
FFFE003FFFC007FFF8
FFFE003FFFC007FFF8
FFFE003FFFC007FFF8
FFFE003FFFC007FFF8
FFFE003FFFC007FFF8
FFFE003FFFC007FFF8
FFFE003FFFC007FFF8
FFFE003FFFC007FFF8
FFFE003FFFC007FFF8
FFFE003FFFC007FFF8
FFFE003FFFC007FFF8
FFFE003FFFC007FFF8
FFFE003FFFC007FFF8
FFFE003FFFC007FFF8
FFFE003FFFC007FFF8
FFFE003FFFC007FFF8
FFFE003FFFC007FFF8
FFFE001FFFC007FFF8
FFFE001FFFC003FFF0
FFFE001FFF8003FFF0
7FFC000FFF0001FFE0
1FF00003FC00007F80
ENDCHAR
STARTCHAR degree
ENCODING 176
SWIDTH 407 0
DWIDTH 37 0
BBX 32 32 2 37
BITMAP
000FF800
007FFE00
00FFFF80
03FFFFC0
07FFFFF0
0FFFFFF8
1FFFFFF8
1FFFFFFC
3FFFFFFE
3FFFFFFE
7FFE7FFE
7FF80FFF
7FF007FF
FFE003FF
FFE003FF
FFE003FF
FFE003FF
FFE003FF
FFE003FF
7FF007FF
7FF00FFF
7FFC3FFF
7FFFFFFE
3FFFFFFE
3FFFFFFC
1FFFFFFC
0FFFFFF8
07FFFFF0
03FFFFE0
01FFFF80
007FFF00
001FFC00
ENDCHAR
STARTCHAR mu
ENCODING 181
SWIDTH 601 0
DWIDTH 54 0
BBX 46 68 4 -20
BITMAP
000000000300
3FF800007FF0
7FFC0000FFF8
FFFE0001FFFC
FFFE0001FFFC
FFFE0001FFFC
FFFE0001FFFC
FFFE0001FFFC
FFFE0001FFFC
FFFE0001FFFC
FFFE0001FFFC
FFFE0001FFFC
FFFE0001FFFC
FFFE0001FFFC
FFFE0001FFFC
FFFE0001FFFC
FFFE0001FFFC
FFFE0001FFFC
FFFE0001FFFC
FFFE0001FFFC
FFFE0001FFFC
FFFE0001FFFC
FFFE0001FFFC
FFFE0001FFFC
FFFE0001FFFC
FFFE0001FFFC
FFFF0003FFFC
FFFF0003FFFC
FFFF0003FFFC
FFFF8007FFFC
FFFFC00FFFFC
FFFFF87FFFFC
FFFFFFFFFFFC
FFFFFFFFFFFC
FFFFFFFFFFFC
FFFFFFFFFFFC
FFFFFFFFFFFC
FFFFFFFFFFFC
FFFFFFFFFFFC
FFFFFFFFFFFC
FFFFFFFFFFFC
FFFFFFFFFFFC
FFFFFFFFFFFC
FFFFFFFDFFFC
FFFFFFF9FFFC
FFFEFFF0FFF8
FFFE3FC07FF0
FFFE00000000
FFFE00000000
FFFE00000000
FFFE00000000
FFFE00000000
FFFE00000000
FFFE00000000
FFFE00000000
FFFE00000000
FFFE00000000
FFFE00000000
FFFE00000000
FFFE00000000
FFFE00000000
FFFE00000000
FFFE00000000
FFFE00000000
FFFE00000000
7FFC00000000
7FF800000000
0FE000000000
ENDCHAR
STARTCHAR onequarter
ENCODING 188
SWIDTH 786 0
DWIDTH 71 0
BBX 61 74 4 -3
BITMAP
0000000000080000
00000000001E0000
000F8000003F8000
001FE000007FC000
007FE000007FC000
00FFE00000FF8000
01FFE00000FF8000
03FFE00001FF0000
07FFE00001FF0000
0FFFE00003FE0000
1FFFE00003FE0000
3FFFE00007FC0000
7FFFE00007FC0000
7FFFE0000FF80000
FFFFE0000FF80000
7FFFE0001FF00000
7FFFE0001FE00000
3FFFE0003FE00000
1FFFE0003FC00000
067FE0007FC00000
007FE000FF800000
007FE000FF800000
007FE001FF000000
007FE001FF000000
007FE003FE000000
007FE003FE000000
007FE007FC000000
007FE007FC000000
007FE00FF8000000
007FE00FF8000000
007FE01FF0000000
007FE01FF0000000
007FE03FE0000000
007FE03FC0F007E0
007FE07FC1FE0FF8
007FE07F83FF1FF8
007FE0FF83FF1FF8
007FE1FF03FF1FF8
003FC1FF07FF1FF8
000403FE07FF1FF8
000003FE07FE1FF8
000007FC07FE1FF8
000007FC0FFE1FF8
00000FF80FFE1FF8
00000FF80FFE1FF8
00001FF00FFC1FF8
00001FF01FFC1FF8
00003FE01FFC1FF8
00003FE01FFC1FF8
00007FC01FF81FF8
00007F803FF81FF8
0000FF803FFFFFF8
0000FF003FFFFFF8
0001FF003FFFFFF8
0003FE003FFFFFF8
0003FE007FFFFFF8
0007FC007FFFFFF8
0007FC003FFFFFF8
000FF8003FFFFFF8
000FF8001FFFFFF8
001FF00000001FF8
001FF00000001FF8
003FE00000001FF8
003FE00000001FF8
007FC00000001FF8
007FC00000001FF8
00FF800000001FF8
00FF000000001FF8
01FF000000001FF8
01FE000000000FF8
01FE0000000003E0
01FC000000000000
007C000000000000
0018000000000000
ENDCHAR
STARTCHAR onehalf
ENCODING 189
SWIDTH 804 0
DWIDTH 72 0
BBX 63 74 4 -3
BITMAP
0000000000080000
00000000001E0000
000F8000003F8000
001FE000007FC000
007FE000007FC000
00FFE00000FF8000
01FFE00000FF8000
03FFE00001FF0000
07FFE00001FF0000
0FFFE00003FE0000
1FFFE00003FE0000
3FFFE00007FC0000
7FFFE00007FC0000
7FFFE0000FF80000
FFFFE0000FF80000
7FFFE0001FF00000
7FFFE0001FE00000
3FFFE0003FE00000
1FFFE0003FC00000
067FE0007FC00000
007FE000FF800000
007FE000FF800000
007FE001FF000000
007FE001FF000000
007FE003FE000000
007FE003FE000000
007FE007FC000000
007FE007FC000000
007FE00FF8000000
007FE00FF8000000
007FE01FF0000000
007FE01FF0000000
007FE03FE0000000
007FE03FC01FF000
007FE07FC07FFC00
007FE07F81FFFF00
007FE0FF83FFFF80
007FE1FF07FFFFC0
003FC1FF0FFFFFE0
000403FE0FFFFFE0
000003FE1FFFFFF0
000007FC3FFFFFF0
000007FC3FFFFFF8
00000FF83FFC7FF8
00000FF83FF83FF8
00001FF07FF01FF8
00001FF07FF01FF8
00003FE07FF01FFC
00003FE07FF01FF8
00007FC03FF03FF8
00007F803FE07FF8
0000FF801FC0FFF8
0000FF000001FFF0
0001FF000007FFF0
0003FE00001FFFE0
0003FE00003FFFC0
0007FC0000FFFF80
0007FC0003FFFF00
000FF80007FFFE00
000FF8000FFFFC00
001FF0001FFFF000
001FF0003FFFFFFC
003FE0003FFFFFFE
003FE0003FFFFFFE
007FC0007FFFFFFE
007FC0007FFFFFFE
00FF80007FFFFFFE
00FF00003FFFFFFE
01FF00003FFFFFFE
01FE00001FFFFFFC
01FE000007FFFFF8
01FC000000000000
007C000000000000
0018000000000000
ENDCHAR
STARTCHAR threequarters
ENCODING 190
SWIDTH 842 0
DWIDTH 76 0
BBX 66 74 4 -3
BITMAP
000000000000400000
000000000000F00000
001FF0000001FC0000
00FFFC000003FE0000
01FFFF000003FE0000
03FFFF800007FC0000
07FFFFC00007FC0000
0FFFFFE0000FF80000
1FFFFFE0000FF80000
3FFFFFF0001FF00000
3FFFFFF0001FF00000
3FFFFFF0003FE00000
3FF03FF8003FE00000
1FF03FF8007FC00000
1FE03FF8007FC00000
0FE03FF000FF800000
01803FF000FF800000
0003FFF001FF000000
001FFFE001FE000000
001FFFC003FE000000
001FFFC003FC000000
001FFFE007FC000000
001FFFF00FF8000000
001FFFF00FF8000000
0007FFF81FF0000000
3F803FF81FF0000000
7FC01FF83FE0000000
7FE01FF83FE0000000
FFE01FF87FC0000000
7FF01FF87FC0000000
7FF87FF8FF80000000
7FFFFFF8FF80000000
3FFFFFF9FF00000000
3FFFFFF1FF07803F00
1FFFFFE3FE0FF07FC0
1FFFFFE3FC1FF8FFC0
0FFFFFC7FC1FF8FFC0
07FFFF87F81FF8FFC0
01FFFE0FF83FF8FFC0
007FF81FF03FF8FFC0
0000001FF03FF8FFC0
0000003FE03FF0FFC0
0000003FE07FF0FFC0
0000007FC07FF0FFC0
0000007FC07FF0FFC0
000000FF807FE0FFC0
000000FF80FFE0FFC0
000001FF00FFE0FFC0
000001FF00FFE0FFC0
000003FE00FFC0FFC0
000003FE01FFC0FFC0
000007FC01FFFFFFC0
000007F801FFFFFFC0
00000FF801FFFFFFC0
00000FF001FFFFFFC0
00001FF003FFFFFFC0
00003FE003FFFFFFC0
00003FE001FFFFFFC0
00007FC001FFFFFFC0
00007FC000FFFFFFC0
0000FF80000000FFC0
0000FF80000000FFC0
0001FF00000000FFC0
0001FF00000000FFC0
0003FE00000000FFC0
0003FE00000000FFC0
0007FC00000000FFC0
0007FC00000000FFC0
000FF800000000FFC0
000FF0000000007FC0
000FF0000000001F00
000FE0000000000000
0003E0000000000000
0000C0000000000000
ENDCHAR
ENDFONT
